<svg xmlns="http://www.w3.org/2000/svg" width="70" height="70" viewBox="0 0 70 70" fill="none"><path d="M69.1773 33.7566C69.1748 24.8045 65.6147 16.2198 59.2795 9.88977C52.9443 3.55971 44.3526 0.00244158 35.3933 0C34.324 0 33.2639 3.15669e-07 32.2223 0.128948C32.0872 0.14275 31.9563 0.183017 31.8368 0.247444C31.7174 0.311872 31.6119 0.399195 31.5263 0.504418C31.4406 0.609641 31.3766 0.730699 31.3379 0.860666C31.2991 0.990633 31.2864 1.12696 31.3005 1.26184C31.3131 1.39635 31.3524 1.52702 31.4159 1.64629C31.4794 1.76556 31.5659 1.87106 31.6705 1.95671C31.7751 2.04236 31.8956 2.10644 32.0251 2.14527C32.1546 2.18409 32.2906 2.19688 32.4251 2.18289C33.4022 2.11842 34.3977 2.05395 35.4025 2.05395C43.5137 2.07017 51.31 5.19338 57.186 10.7805C63.0619 16.3675 66.5702 23.9931 66.9884 32.0871C67.4066 40.181 64.7029 48.127 59.434 54.289C54.1651 60.451 46.7321 64.3598 38.6657 65.2105V62.6132L32.3605 66.2974L38.6564 70V67.3566C47.0062 66.5303 54.7515 62.6356 60.3906 56.4275C66.0298 50.2195 69.161 42.1404 69.1773 33.7566Z" fill="#1A74FA"></path><path d="M24.6402 1.64709C23.5857 1.66202 22.5356 1.78857 21.5073 2.02468H21.3977C20.0612 2.32324 18.7751 2.81652 17.5797 3.48897C12.2471 6.50699 7.8078 10.9024 4.71816 16.2234C1.62852 21.5444 0 27.5989 0 33.7647C0 39.9305 1.62852 45.9851 4.71816 51.3061C7.8078 56.6271 12.2471 61.0225 17.5797 64.0405C18.7951 64.7187 20.1032 65.2121 21.4616 65.5048H21.5255C22.5531 65.7454 23.6036 65.8721 24.6585 65.8824C25.7552 65.8776 26.8058 65.4368 27.5822 64.6557C28.3585 63.8746 28.798 62.8163 28.8053 61.7105V53.505C28.8053 52.9535 28.6975 52.4074 28.4882 51.8979C28.2789 51.3884 27.9721 50.9255 27.5853 50.5355C27.1986 50.1456 26.7394 49.8362 26.2341 49.6252C25.7288 49.4142 25.1872 49.3055 24.6402 49.3055H21.5073C19.7066 49.3007 17.9814 48.5754 16.7106 47.2889C15.4399 46.0025 14.7275 44.2602 14.7299 42.4446V24.0811C14.6996 23.2271 14.8588 22.3771 15.1959 21.5931C15.5331 20.8091 16.0397 20.1109 16.6787 19.5496C17.3177 18.9882 18.073 18.5779 18.8895 18.3485C19.7059 18.1192 20.5628 18.0766 21.3977 18.2239H24.6585C25.7631 18.2239 26.8225 17.7815 27.6036 16.9939C28.3847 16.2064 28.8235 15.1382 28.8235 14.0245V5.87419C28.8247 5.31952 28.7174 4.77005 28.5077 4.25725C28.298 3.74445 27.9901 3.27838 27.6015 2.88574C27.2129 2.4931 26.7513 2.18159 26.2432 1.96904C25.7351 1.7565 25.1903 1.64709 24.6402 1.64709ZM26.7227 53.505V61.7105C26.7203 62.2667 26.5001 62.7994 26.1101 63.1926C25.7201 63.5859 25.1918 63.8079 24.6402 63.8103C23.9326 63.8099 23.2264 63.7451 22.5303 63.6169V51.3776H24.6402C24.9157 51.3788 25.1882 51.4349 25.4421 51.5426C25.696 51.6502 25.9263 51.8074 26.1198 52.0051C26.3133 52.2028 26.4662 52.437 26.5696 52.6944C26.6731 52.9518 26.7251 53.2273 26.7227 53.505ZM15.3145 17.9661C14.4579 18.7303 13.7758 19.6728 13.3154 20.7285C12.8549 21.7842 12.627 22.928 12.6474 24.0811V42.4446C12.6466 44.6349 13.4447 46.7491 14.8898 48.3845C16.335 50.0199 18.3262 51.0623 20.4843 51.3132V63.0735C19.8283 62.8459 19.1928 62.5625 18.5844 62.2263C13.5758 59.3866 9.40678 55.2542 6.50546 50.2533C3.60414 45.2524 2.07499 39.563 2.07499 33.7693C2.07499 27.9757 3.60414 22.2863 6.50546 17.2854C9.40678 12.2845 13.5758 8.15207 18.5844 5.31242C19.189 4.96867 19.8253 4.68492 20.4843 4.46516V16.0874C18.5915 16.0572 16.753 16.7253 15.3145 17.9661ZM26.7227 14.0245C26.7251 14.3022 26.6731 14.5777 26.5696 14.8351C26.4662 15.0925 26.3133 15.3267 26.1198 15.5244C25.9263 15.7221 25.696 15.8792 25.4421 15.9869C25.1882 16.0946 24.9157 16.1506 24.6402 16.1518H22.5303V3.93102C23.2287 3.82088 23.9335 3.75628 24.6402 3.73762C24.9164 3.73881 25.1897 3.79516 25.4442 3.90341C25.6987 4.01166 25.9295 4.16967 26.1231 4.36832C26.3167 4.56697 26.4694 4.80231 26.5723 5.06078C26.6752 5.31924 26.7263 5.5957 26.7227 5.87419V14.0245Z" fill="#1A74FA"></path><path d="M36.439 37.7381L46.7 48.2463C46.916 48.4576 47.2087 48.5802 47.5167 48.5883C47.7928 48.5844 48.0584 48.4861 48.2661 48.311C48.4726 48.1088 48.5884 47.8367 48.5884 47.5532C48.5884 47.2697 48.4726 46.9975 48.2661 46.7953L38.0339 36.2963C38.3608 35.8136 38.5787 35.2702 38.6734 34.7013C38.768 34.1324 38.7374 33.5507 38.5834 32.9939C38.4294 32.4371 38.1555 31.9176 37.7795 31.4692C37.4034 31.0207 36.9336 30.6533 36.4005 30.3907L40.8777 11.9897C40.9099 11.8556 40.9143 11.7167 40.8907 11.5809C40.8671 11.4452 40.8159 11.3153 40.74 11.1985C40.6642 11.0818 40.5652 10.9806 40.4487 10.9007C40.3322 10.8208 40.2005 10.7637 40.0611 10.7328C39.9217 10.7018 39.7773 10.6976 39.6362 10.7203C39.495 10.7431 39.36 10.7923 39.2386 10.8652C39.1173 10.9382 39.0121 11.0334 38.929 11.1455C38.8459 11.2575 38.7866 11.3842 38.7544 11.5183L34.2772 29.8823C33.2176 30.0112 32.2441 30.5104 31.5423 31.2849C30.8404 32.0593 30.4591 33.0551 30.471 34.0825C30.4828 35.1099 30.887 36.0972 31.6066 36.8565C32.3262 37.6158 33.3109 38.094 34.3733 38.2002C35.0911 38.2139 35.8011 38.0551 36.439 37.7381ZM32.1828 34.0413C32.1866 33.6253 32.3182 33.2197 32.5612 32.8757C32.8042 32.5316 33.1477 32.2644 33.5483 32.1077C33.9488 31.951 34.3887 31.9119 34.8123 31.9953C35.236 32.0787 35.6245 32.2808 35.9289 32.5763C36.2334 32.8717 36.4401 33.2472 36.5231 33.6554C36.6061 34.0637 36.5616 34.4864 36.3952 34.8704C36.2289 35.2543 35.9481 35.5823 35.5883 35.8131C35.2285 36.0438 34.8057 36.1669 34.3733 36.1669C34.0853 36.1682 33.7999 36.1145 33.5335 36.009C33.2672 35.9036 33.0252 35.7484 32.8215 35.5525C32.6179 35.3566 32.4566 35.1238 32.3469 34.8676C32.2373 34.6114 32.1815 34.3368 32.1828 34.0598V34.0413Z" fill="#1A74FA"></path></svg>